<?xml version="1.0" encoding="UTF-8"?>
<!-- Generator: visioncortex VTracer 0.6.4 -->
<svg version="1.1" xmlns="http://www.w3.org/2000/svg" width="2560" height="1006">
<path d="M0 0 C844.8 0 1689.6 0 2560 0 C2560 331.98 2560 663.96 2560 1006 C1715.2 1006 870.4 1006 0 1006 C0 674.02 0 342.04 0 0 Z " fill="#FEFEFE" transform="translate(0,0)"/>
<path d="M0 0 C0.77 -0 1.54 -0 2.33 -0 C4.89 -0 7.45 0 10.01 0.01 C11.86 0.01 13.7 0.01 15.54 0.01 C20.53 0.01 25.52 0.01 30.51 0.02 C35.73 0.03 40.95 0.03 46.17 0.03 C56.05 0.03 65.92 0.04 75.8 0.05 C87.05 0.06 98.3 0.06 109.54 0.07 C132.68 0.08 155.81 0.1 178.94 0.12 C177.1 4.83 174.81 9.2 172.39 13.63 C169.53 18.9 166.85 24.27 164.18 29.64 C160.23 37.57 156.18 45.44 152.13 53.31 C151.74 54.07 151.34 54.83 150.94 55.61 C145.81 65.58 140.65 75.52 135.43 85.44 C132.45 91.11 129.57 96.83 126.73 102.57 C123.36 109.25 119.83 115.85 116.34 122.46 C112.31 130.11 108.3 137.78 104.33 145.46 C103.05 147.9 101.76 150.34 100.47 152.78 C99.75 154.17 99.03 155.55 98.31 156.93 C97.7 158.09 97.09 159.26 96.46 160.45 C93.01 168.77 92.61 177.02 92.69 185.93 C92.7 187.52 92.7 187.52 92.71 189.14 C92.88 201.54 94.45 211.84 99.94 223.12 C100.23 223.72 100.52 224.32 100.82 224.94 C105 233.44 109.56 241.04 115.94 248.12 C116.82 249.15 116.82 249.15 117.73 250.19 C126 259.16 137.57 265.86 148.94 270.12 C149.77 270.44 150.59 270.76 151.44 271.09 C170.14 276.99 191.69 273.82 209.01 265.31 C224.88 257.03 238.14 244.01 247.94 229.12 C248.33 228.53 248.72 227.94 249.12 227.34 C260.27 210.38 268.51 192.16 276.25 173.43 C276.71 172.34 277.16 171.24 277.63 170.11 C278.73 167.45 279.84 164.79 280.94 162.12 C280.29 162.13 279.64 162.14 278.98 162.15 C272.18 162.27 265.38 162.34 258.58 162.39 C256.05 162.42 253.52 162.45 250.99 162.5 C219.84 163.02 219.84 163.02 207.07 152.2 C195.84 141.24 190.98 131.32 190.7 115.78 C190.67 109.01 190.67 103.18 193.94 97.12 C194.35 96.27 194.77 95.42 195.19 94.55 C196.74 91.39 198.34 88.25 199.94 85.12 C204.22 76.67 208.41 68.19 212.44 59.62 C215.38 53.37 218.37 47.15 221.49 40.98 C223.57 36.86 225.62 32.73 227.64 28.59 C228.98 25.85 230.33 23.11 231.67 20.38 C232.35 19.01 233.02 17.63 233.68 16.25 C234.63 14.3 235.59 12.36 236.55 10.41 C237.1 9.27 237.66 8.13 238.23 6.96 C240.02 3.99 240.97 2.82 243.94 1.12 C246.47 0.83 248.76 0.72 251.29 0.75 C252.41 0.74 252.41 0.74 253.55 0.74 C256.07 0.73 258.59 0.74 261.1 0.75 C262.92 0.75 264.74 0.75 266.56 0.74 C271.58 0.73 276.6 0.74 281.62 0.76 C287.04 0.77 292.45 0.76 297.87 0.76 C308.55 0.75 319.22 0.76 329.9 0.78 C342.52 0.8 355.14 0.8 367.76 0.8 C390.52 0.8 413.28 0.82 436.04 0.84 C457.67 0.86 479.3 0.88 500.93 0.88 C502.24 0.88 503.55 0.88 504.89 0.88 C510.16 0.88 515.42 0.88 520.69 0.88 C640.14 0.91 759.59 1.2 912.94 2.12 C912.94 2.78 912.94 3.44 912.94 4.12 C912.28 4.12 911.62 4.12 910.94 4.12 C910.84 4.65 910.75 5.17 910.65 5.72 C909.7 8.93 908.13 11.63 906.5 14.56 C904.06 18.91 904.06 18.91 902.03 23.46 C900.34 27.57 898.1 31.37 895.94 35.25 C890.25 45.56 884.82 56.01 879.44 66.5 C879.05 67.26 878.65 68.02 878.25 68.81 C874.74 75.64 871.24 82.48 867.84 89.36 C866.57 91.85 865.14 94.23 863.69 96.62 C860.71 101.68 858.02 106.84 855.43 112.11 C853.12 116.79 850.76 121.42 848.35 126.04 C847.88 126.95 847.88 126.95 847.4 127.88 C846.11 130.34 844.83 132.81 843.54 135.27 C842.63 137.01 841.72 138.74 840.82 140.48 C840.29 141.5 839.76 142.51 839.21 143.56 C837.86 146.14 837.86 146.14 836.94 149.12 C836.28 149.12 835.62 149.12 834.94 149.12 C834.79 150.19 834.79 150.19 834.63 151.29 C833.85 154.48 832.61 156.64 830.88 159.43 C828.21 163.89 825.73 168.39 823.44 173.06 C819.58 180.9 815.58 188.67 811.56 196.43 C811.24 197.06 810.91 197.69 810.58 198.34 C806.53 206.15 802.47 213.96 798.38 221.75 C798.01 222.45 797.64 223.15 797.26 223.87 C795.25 227.67 793.21 231.45 791.14 235.22 C787.76 241.4 784.55 247.67 781.33 253.94 C774.41 267.45 767.42 280.91 759.94 294.12 C759.49 294.92 759.04 295.71 758.57 296.53 C752.02 307.96 744.55 318.17 735.94 328.12 C735.13 329.05 734.33 329.99 733.5 330.95 C731.36 333.39 729.17 335.76 726.94 338.12 C726.11 339 725.29 339.88 724.43 340.78 C700.22 365.81 667.56 384.37 633.82 392.64 C632.08 393.08 630.36 393.61 628.64 394.15 C608.45 399.45 583.16 401.29 562.86 395.89 C560 395.14 557.25 394.74 554.31 394.37 C521.54 389.03 495.42 368 474.94 343.12 C471.99 346.03 469.13 348.97 466.44 352.12 C463.71 355.25 460.95 358.25 457.94 361.12 C457.24 361.79 456.55 362.46 455.83 363.14 C445.95 372.37 435.37 378.88 422.94 384.12 C421.14 384.89 421.14 384.89 419.31 385.68 C384.09 400.55 345.19 399.53 309.92 385.42 C295.43 379.08 283.21 370.06 271.94 359.12 C271.04 358.26 270.14 357.4 269.21 356.51 C264.45 351.87 260.2 347.14 256.31 341.74 C255.86 341.2 255.41 340.67 254.94 340.12 C254.28 340.12 253.62 340.12 252.94 340.12 C251.69 341.53 250.52 343 249.38 344.5 C232.43 366.11 210.13 381.69 183.94 390.12 C183.17 390.39 182.4 390.67 181.61 390.95 C168.86 395.24 154.85 395.59 141.5 395.62 C140.77 395.62 140.04 395.63 139.29 395.63 C125.25 395.62 112.32 393.52 98.94 389.12 C98.19 388.87 97.44 388.63 96.67 388.38 C92.3 386.88 88.12 385.1 83.94 383.12 C83.34 382.84 82.74 382.56 82.12 382.27 C51.3 367.61 26.78 340.84 15.03 308.77 C4.68 278.25 5.99 246.99 13.94 216.12 C13.51 217 13.09 217.87 12.65 218.78 C7.89 228.46 2.82 237.94 -2.35 247.41 C-5.2 252.65 -8 257.89 -10.62 263.25 C-14.04 270.21 -17.78 277 -21.51 283.8 C-27.86 295.39 -34.06 307.03 -39.9 318.89 C-43.1 325.31 -46.58 331.57 -50.06 337.84 C-52.68 342.55 -55.19 347.28 -57.56 352.12 C-60.37 357.85 -63.4 363.42 -66.5 369 C-69.82 374.98 -73.05 380.98 -76.06 387.12 C-79.05 393.22 -82.26 399.18 -85.56 405.12 C-89.22 411.71 -92.74 418.34 -96.07 425.1 C-101.26 435.62 -106.76 445.99 -112.44 456.25 C-114.92 460.76 -117.07 465.37 -119.06 470.12 C-119.72 470.12 -120.38 470.12 -121.06 470.12 C-121.16 470.84 -121.26 471.55 -121.37 472.29 C-122.15 475.48 -123.39 477.64 -125.12 480.43 C-127.87 485.01 -130.39 489.64 -132.75 494.43 C-178.44 587.09 -178.44 587.09 -208.06 605.12 C-209.16 605.8 -210.27 606.48 -211.41 607.17 C-233.11 620.22 -256.21 621.74 -281.04 621.55 C-283.48 621.54 -285.91 621.54 -288.34 621.54 C-293.41 621.53 -298.47 621.51 -303.53 621.48 C-309.96 621.44 -316.4 621.42 -322.83 621.41 C-329.05 621.4 -335.26 621.38 -341.48 621.36 C-343.21 621.35 -343.21 621.35 -344.98 621.35 C-358.71 621.3 -372.36 621 -386.06 620.12 C-384.85 616.4 -383.59 612.95 -381.77 609.49 C-381.08 608.18 -381.08 608.18 -380.38 606.84 C-379.88 605.9 -379.39 604.96 -378.87 604 C-378.35 602.99 -377.82 601.99 -377.28 600.96 C-372.81 592.48 -368.27 584.04 -363.73 575.59 C-358.5 565.87 -353.39 556.08 -348.33 546.26 C-343.56 537.04 -338.67 527.89 -333.74 518.75 C-328.87 509.69 -324.13 500.56 -319.43 491.41 C-314.77 482.35 -309.97 473.38 -305.06 464.46 C-301.85 458.61 -298.83 452.71 -295.9 446.73 C-293.61 442.16 -291.1 437.71 -288.62 433.25 C-285.3 427.26 -282.07 421.27 -279.06 415.12 C-276.07 409.02 -272.86 403.06 -269.56 397.12 C-266.29 391.24 -263.1 385.34 -260.12 379.31 C-250.77 360.34 -240.68 341.75 -230.68 323.12 C-225.35 313.21 -220.08 303.28 -214.85 293.32 C-212.8 289.41 -210.74 285.52 -208.67 281.62 C-205.26 275.22 -201.89 268.82 -198.69 262.31 C-195.39 255.64 -191.79 249.15 -188.18 242.64 C-185.37 237.56 -182.67 232.46 -180.12 227.25 C-176.95 220.77 -173.54 214.44 -170.06 208.12 C-166.64 201.9 -163.26 195.68 -160.12 189.31 C-152.26 173.35 -143.94 157.62 -135.38 142.02 C-130.9 133.85 -126.56 125.62 -122.24 117.36 C-120.33 113.73 -118.42 110.11 -116.5 106.5 C-115.96 105.47 -115.96 105.47 -115.4 104.42 C-113.45 100.74 -111.5 97.06 -109.53 93.39 C-109.12 92.61 -108.71 91.83 -108.28 91.03 C-107.49 89.54 -106.69 88.05 -105.89 86.56 C-104.41 83.77 -103.06 81.12 -102.06 78.12 C-101.4 78.12 -100.74 78.12 -100.06 78.12 C-99.88 77.03 -99.88 77.03 -99.7 75.91 C-94.22 51.91 -72.17 29.42 -52.12 16.56 C-42.63 10.74 -32.89 5.87 -22.06 3.12 C-21.03 2.75 -20 2.38 -18.94 2 C-12.76 0.12 -6.41 -0.03 0 0 Z " fill="#ED3237" transform="translate(657.061279296875,153.87974548339844)"/>
<path d="M0 0 C3.59 0.02 7.17 0.02 10.76 0.02 C17.52 0.03 24.28 0.06 31.03 0.09 C38.74 0.12 46.45 0.14 54.16 0.15 C69.98 0.18 85.8 0.24 101.62 0.3 C100.06 4.33 98.19 7.9 95.99 11.62 C93.1 16.6 90.4 21.63 87.87 26.8 C84.79 33.09 81.5 39.24 78.12 45.37 C72.3 55.92 66.78 66.61 61.32 77.34 C57.82 84.19 54.14 90.89 50.22 97.51 C47.79 101.75 45.72 106.12 43.68 110.55 C43.28 111.41 42.89 112.26 42.48 113.14 C41.52 115.19 40.57 117.25 39.62 119.3 C38.96 119.3 38.3 119.3 37.62 119.3 C37.52 119.84 37.41 120.38 37.3 120.94 C36.45 123.91 35.13 126.43 33.71 129.18 C33.11 130.33 32.51 131.48 31.9 132.67 C31.58 133.27 31.27 133.87 30.95 134.48 C30.01 136.27 29.09 138.06 28.16 139.85 C24.67 146.57 21 153.15 17.15 159.67 C15.25 162.95 13.58 166.27 11.93 169.68 C7.27 179.2 2.12 188.46 -2.98 197.75 C-7.44 205.88 -11.78 214.05 -15.88 222.37 C-18.2 227.06 -20.67 231.6 -23.32 236.12 C-27.86 243.94 -31.63 252.08 -35.38 260.3 C-36.04 260.3 -36.7 260.3 -37.38 260.3 C-37.78 261.6 -37.78 261.6 -38.19 262.92 C-39.36 266.26 -40.76 269.24 -42.39 272.37 C-43.28 274.09 -43.28 274.09 -44.19 275.84 C-44.5 276.43 -44.81 277.02 -45.13 277.63 C-46.05 279.4 -46.97 281.17 -47.89 282.94 C-51.37 289.63 -55.02 296.17 -58.85 302.66 C-60.75 305.94 -62.42 309.27 -64.07 312.68 C-67.88 320.48 -72.04 328.09 -76.26 335.68 C-82.18 346.3 -82.18 346.3 -83.88 358.24 C-83.88 358.94 -83.87 359.65 -83.86 360.37 C-83.67 366.26 -82.45 370.08 -78.38 374.3 C-77.91 374.8 -77.44 375.3 -76.96 375.82 C-71.09 381.33 -64.01 381.84 -56.31 381.68 C-48.15 380.64 -43.23 374.44 -38.38 368.3 C-36.28 365.2 -34.38 361.99 -32.51 358.74 C-31.46 356.97 -30.42 355.2 -29.38 353.43 C-28.87 352.56 -28.36 351.69 -27.84 350.8 C-25.78 347.28 -23.67 343.79 -21.57 340.3 C-16.22 331.4 -10.96 322.46 -6.03 313.32 C-4.47 310.46 -2.87 307.63 -1.26 304.8 C2.83 297.58 6.76 290.3 10.6 282.94 C14.08 276.29 17.65 269.7 21.24 263.12 C25.17 255.91 28.99 248.68 32.6 241.31 C35.38 235.67 38.4 230.18 41.43 224.68 C45.5 217.3 49.39 209.86 53.12 202.3 C57.32 193.79 61.77 185.45 66.35 177.13 C69.57 171.27 72.66 165.36 75.61 159.35 C78.76 152.96 82.08 146.66 85.41 140.36 C88.16 135.15 90.83 129.91 93.46 124.64 C97.48 116.55 101.6 108.52 105.74 100.49 C106.11 99.79 106.47 99.09 106.84 98.36 C107.4 97.29 107.4 97.29 107.97 96.19 C108.52 95.11 108.52 95.11 109.09 94.01 C109.84 92.56 110.59 91.11 111.34 89.65 C113.75 85 116.14 80.33 118.52 75.66 C136 41.37 154.89 16.74 192.16 3.42 C208.26 -1.04 225.37 0.04 241.91 0.1 C245.7 0.11 249.5 0.12 253.3 0.12 C260.46 0.12 267.63 0.14 274.79 0.16 C282.96 0.18 291.12 0.19 299.29 0.2 C316.07 0.22 332.84 0.26 349.62 0.3 C348.79 3.93 347.42 6.87 345.71 10.18 C345.11 11.33 344.51 12.48 343.9 13.67 C343.58 14.27 343.27 14.87 342.95 15.48 C342.01 17.27 341.09 19.06 340.16 20.85 C336.67 27.56 333 34.13 329.16 40.65 C327.21 44.01 325.5 47.43 323.81 50.93 C320.92 56.83 317.84 62.58 314.62 68.3 C311.51 73.82 308.53 79.37 305.74 85.05 C302.15 92.38 298.26 99.52 294.33 106.67 C290.65 113.38 287.07 120.14 283.56 126.93 C279.74 134.3 275.84 141.61 271.81 148.87 C268.82 154.25 265.9 159.65 263.18 165.18 C260.28 171.08 257.17 176.85 253.99 182.62 C248.91 191.86 244 201.19 239.16 210.57 C236.22 216.27 233.2 221.93 230.11 227.56 C227.57 232.25 225.13 237 222.68 241.74 C219.04 248.77 215.31 255.67 211.24 262.46 C208.94 266.49 206.93 270.65 204.88 274.82 C201.67 281.33 198.15 287.66 194.63 294 C191.32 299.98 188.23 306.02 185.23 312.16 C183.65 315.24 181.96 318.21 180.18 321.18 C177.35 325.94 174.78 330.79 172.31 335.74 C171.97 336.42 171.63 337.09 171.28 337.79 C166.29 347.89 163.7 358.2 166.8 369.35 C169.03 374.66 173.4 378.95 178.62 381.3 C186.04 383.2 194.5 383.18 201.62 380.3 C206.51 376.76 209.2 373.29 211.99 367.99 C212.57 366.94 212.57 366.94 213.16 365.86 C216.03 360.55 218.73 355.16 221.38 349.74 C224.83 342.76 228.59 335.97 232.34 329.16 C234.85 324.58 237.33 320 239.62 315.3 C242.31 309.81 245.24 304.47 248.18 299.12 C252.63 291.03 256.95 282.88 261.18 274.68 C265.6 266.13 270.14 257.67 274.81 249.26 C277.52 244.37 280.1 239.45 282.56 234.43 C286.13 227.14 290 220.04 293.91 212.93 C297.59 206.23 301.17 199.47 304.68 192.68 C308.92 184.5 313.28 176.42 317.75 168.37 C320.87 162.73 323.8 157.03 326.63 151.24 C329.14 146.17 331.85 141.23 334.62 136.3 C337.73 130.79 340.71 125.24 343.49 119.55 C347 112.42 350.79 105.47 354.63 98.51 C357.72 92.88 360.71 87.21 363.63 81.5 C364.15 80.48 364.15 80.48 364.68 79.45 C366.38 76.12 368.07 72.78 369.75 69.44 C375.4 58.29 381.47 47 390.18 37.93 C390.65 37.44 391.11 36.96 391.59 36.46 C392.93 35.06 394.27 33.68 395.62 32.3 C396.29 31.58 396.95 30.85 397.64 30.1 C414.97 11.6 441.21 1.41 466.13 0.12 C469.63 0.06 473.12 0.06 476.62 0.08 C478.59 0.08 478.59 0.08 480.59 0.08 C484.13 0.08 487.66 0.09 491.2 0.1 C494.91 0.11 498.63 0.12 502.35 0.12 C509.36 0.12 516.37 0.14 523.38 0.16 C531.37 0.18 539.37 0.19 547.36 0.2 C563.78 0.22 580.2 0.26 596.62 0.3 C595.35 4.2 593.98 7.79 592.08 11.43 C591.34 12.85 591.34 12.85 590.58 14.3 C590.06 15.29 589.54 16.28 588.99 17.3 C588.46 18.33 587.92 19.36 587.36 20.42 C583.87 27.04 580.23 33.55 576.46 40.02 C574.12 44.2 572.01 48.47 569.91 52.77 C566.44 59.8 562.65 66.65 558.83 73.5 C556.15 78.35 553.72 83.2 551.53 88.28 C550.23 91.18 548.67 93.88 547.06 96.62 C546.36 97.82 545.66 99.03 544.96 100.24 C544.59 100.88 544.21 101.53 543.83 102.2 C537.83 112.67 532.06 123.25 526.75 134.08 C522.45 142.79 517.69 151.25 513.02 159.75 C508.56 167.88 504.22 176.05 500.12 184.37 C497.49 189.68 494.65 194.81 491.67 199.92 C489.18 204.22 486.93 208.6 484.74 213.05 C481.87 218.91 478.82 224.62 475.62 230.3 C472.51 235.82 469.53 241.37 466.74 247.05 C463.15 254.38 459.26 261.52 455.33 268.67 C451.65 275.38 448.07 282.14 444.56 288.93 C440.76 296.26 436.88 303.53 432.87 310.74 C429.67 316.49 426.58 322.27 423.68 328.18 C420.11 335.46 416.24 342.56 412.33 349.66 C408.58 356.49 404.95 363.38 401.37 370.3 C399.46 373.97 397.54 377.64 395.62 381.3 C395.25 382.01 394.88 382.72 394.5 383.45 C377.56 415.38 346.77 440.99 312.05 451.69 C306.96 452.97 301.8 453.97 296.64 454.91 C295.27 455.18 293.91 455.48 292.56 455.83 C284.73 457.71 276.94 457.64 268.94 457.62 C266.52 457.62 264.11 457.64 261.69 457.67 C247.76 457.72 234.59 456.06 221.56 450.87 C220.7 450.53 219.83 450.2 218.95 449.85 C206.45 444.83 194.65 438.26 182.92 431.67 C160.08 418.96 135.06 415.44 109.62 422.3 C97.25 426.16 85.84 432.54 74.43 438.57 C73.34 439.14 72.24 439.72 71.12 440.31 C68.96 441.45 66.81 442.59 64.66 443.74 C41.91 455.73 19.04 458.25 -6.38 457.3 C-7.65 457.27 -7.65 457.27 -8.95 457.23 C-31.96 456.57 -52.39 448.75 -71.64 436.4 C-76.77 433.17 -82.09 430.26 -87.38 427.3 C-88.18 426.83 -88.98 426.36 -89.81 425.87 C-109.52 414.92 -135.77 413.87 -157.23 419.6 C-161.17 420.77 -164.9 422.18 -168.45 424.26 C-170.53 425.38 -172.6 426.18 -174.82 427 C-181.17 429.5 -186.97 432.84 -192.88 436.24 C-223.75 453.89 -223.75 453.89 -241 455.47 C-241.87 455.55 -242.74 455.63 -243.63 455.72 C-259.05 456.94 -274.6 456.52 -290.05 456.44 C-294.5 456.42 -298.94 456.41 -303.39 456.4 C-312.05 456.38 -320.72 456.35 -329.38 456.3 C-324.95 445.09 -318.93 434.58 -313.14 424.03 C-309.46 417.34 -305.89 410.59 -302.38 403.8 C-298.53 396.38 -294.6 389.01 -290.57 381.68 C-285.12 371.79 -279.93 361.78 -274.81 351.73 C-271.41 345.1 -267.87 338.6 -264.15 332.15 C-261.7 327.9 -259.44 323.6 -257.32 319.18 C-254.51 313.44 -251.45 307.94 -248.17 302.45 C-245.67 298.06 -243.44 293.54 -241.22 289 C-239.1 284.66 -236.81 280.48 -234.38 276.3 C-230.88 270.08 -227.6 263.77 -224.44 257.37 C-221.58 251.57 -218.49 246 -215.17 240.45 C-212.67 236.06 -210.44 231.54 -208.22 227 C-206.45 223.39 -204.58 219.89 -202.56 216.41 C-199.11 210.25 -195.99 203.9 -192.78 197.61 C-189.35 190.96 -185.76 184.45 -181.95 178.01 C-179.86 174.41 -178 170.73 -176.19 166.99 C-174.11 162.71 -171.95 158.53 -169.56 154.41 C-166.11 148.25 -162.99 141.9 -159.78 135.61 C-156.35 128.96 -152.76 122.45 -148.95 116.01 C-146.86 112.41 -145 108.73 -143.19 104.99 C-141.11 100.71 -138.95 96.53 -136.56 92.41 C-133.11 86.25 -129.99 79.9 -126.78 73.61 C-110.75 42.48 -90.75 16.89 -56.51 5.18 C-37.98 -0.07 -19.12 -0.12 0 0 Z " fill="#282828" transform="translate(1889.3800547122955,317.6958181858063)"/>
<path d="M0 0 C1.3 0 1.3 0 2.62 0 C3.53 -0 4.44 -0.01 5.38 -0.01 C8.46 -0.02 11.54 -0.03 14.61 -0.03 C16.81 -0.04 19.01 -0.04 21.21 -0.05 C27.2 -0.07 33.19 -0.08 39.18 -0.09 C42.93 -0.09 46.68 -0.1 50.43 -0.1 C60.81 -0.12 71.2 -0.13 81.59 -0.14 C84.29 -0.14 86.99 -0.15 89.68 -0.15 C90.35 -0.15 91.03 -0.15 91.72 -0.15 C102.54 -0.16 113.37 -0.18 124.19 -0.22 C135.32 -0.25 146.45 -0.27 157.59 -0.27 C163.83 -0.27 170.07 -0.28 176.31 -0.31 C182.2 -0.33 188.09 -0.33 193.98 -0.32 C196.12 -0.32 198.27 -0.33 200.42 -0.34 C217.58 -0.45 233.63 0.93 249.04 9.15 C250.09 9.67 251.13 10.2 252.21 10.74 C278.93 24.53 298 45.97 307.16 74.6 C312.76 93.07 312.6 112.48 308.04 131.15 C307.85 132.02 307.65 132.89 307.45 133.79 C303.44 149.51 293.32 164.19 285.67 178.39 C282.42 184.43 279.2 190.49 276 196.56 C274.09 200.19 272.14 203.8 270.17 207.4 C267.06 213.09 264.04 218.83 261.04 224.59 C260.52 225.58 260 226.58 259.46 227.61 C255.92 234.43 252.42 241.25 249.04 248.15 C248.38 248.15 247.72 248.15 247.04 248.15 C246.94 249.11 246.94 249.11 246.84 250.1 C245.69 254.47 243.48 258.06 241.23 261.96 C238.34 267.01 235.55 272.06 232.98 277.28 C231.52 280.18 229.87 282.97 228.23 285.77 C224.87 291.56 221.83 297.46 218.88 303.46 C213.58 314.17 207.81 324.63 201.99 335.06 C191.95 352.94 191.95 352.94 182.54 371.15 C179.27 377.8 175.72 384.28 172.15 390.77 C166.74 400.66 161.46 410.61 156.18 420.57 C155.84 421.21 155.5 421.86 155.14 422.52 C154.46 423.8 153.79 425.09 153.11 426.37 C151.34 429.7 149.57 433.03 147.78 436.35 C147.41 437.04 147.04 437.72 146.67 438.42 C145.96 439.73 145.26 441.04 144.55 442.34 C143.16 444.93 141.97 447.36 141.04 450.15 C158.53 450.15 176.02 450.15 194.04 450.15 C193.38 452.46 192.72 454.77 192.04 457.15 C191.38 457.15 190.72 457.15 190.04 457.15 C189.97 457.81 189.89 458.46 189.82 459.14 C188.75 463.27 186.73 466.6 184.6 470.27 C183.69 471.88 182.78 473.49 181.87 475.1 C181.4 475.93 180.93 476.76 180.45 477.61 C177.75 482.47 175.19 487.41 172.62 492.34 C170.48 496.43 168.31 500.49 166.09 504.54 C163.12 509.97 160.26 515.46 157.41 520.96 C152.77 529.92 147.99 538.79 143.13 547.63 C140.1 553.15 137.22 558.72 134.46 564.37 C132.78 567.65 130.95 570.84 129.1 574.02 C126.5 578.5 124.07 583 121.79 587.65 C117.21 596.97 112.15 606.03 107.14 615.12 C106.42 616.45 105.72 617.79 105.04 619.15 C93.99 619.22 82.94 619.27 71.89 619.3 C66.76 619.32 61.63 619.34 56.49 619.37 C51.53 619.41 46.56 619.42 41.59 619.43 C39.71 619.44 37.83 619.45 35.95 619.46 C17.76 619.62 1.86 617.32 -14.96 610.15 C-15.86 609.77 -16.76 609.39 -17.69 609 C-35.81 600.66 -49.03 586.43 -59.96 570.15 C-60.46 569.45 -60.97 568.76 -61.48 568.04 C-66.03 561.48 -68.36 553.63 -70.96 546.15 C-71.49 544.63 -71.49 544.63 -72.03 543.08 C-80.27 517.01 -77.65 488.73 -65.17 464.7 C-59.16 453.38 -52.77 442.27 -46.27 431.22 C-42.04 424.04 -37.94 416.8 -33.9 409.52 C-28.87 400.48 -23.71 391.54 -18.4 382.66 C-15.32 377.51 -12.37 372.31 -9.52 367.03 C-1.33 351.89 7.12 336.91 15.84 322.07 C21.82 311.86 27.58 301.53 33.34 291.19 C40.62 278.16 48 265.19 55.48 252.27 C62.2 240.66 68.77 228.97 75.3 217.25 C78.27 211.94 81.25 206.64 84.23 201.34 C85.04 199.88 85.04 199.88 85.87 198.4 C86.37 197.51 86.88 196.61 87.4 195.69 C87.83 194.91 88.27 194.12 88.73 193.32 C90.04 191.15 90.04 191.15 91.68 189.05 C94.64 184.91 93.56 178.99 93.04 174.15 C90.6 168.32 85.74 164.65 80.04 162.15 C74.37 161.27 68.77 161.33 63.05 161.37 C61.33 161.37 59.61 161.36 57.9 161.34 C53.26 161.31 48.63 161.32 43.99 161.34 C39.14 161.35 34.29 161.32 29.43 161.3 C20.25 161.27 11.07 161.26 1.89 161.27 C-8.56 161.28 -19.01 161.25 -29.47 161.22 C-50.97 161.16 -72.46 161.14 -93.96 161.15 C-93.23 157.1 -92.07 154.16 -90.04 150.56 C-89.43 149.48 -88.83 148.4 -88.2 147.28 C-87.54 146.11 -86.87 144.94 -86.21 143.77 C-85.52 142.55 -84.84 141.33 -84.16 140.11 C-82.1 136.45 -80.03 132.8 -77.96 129.15 C-76.85 127.19 -75.74 125.23 -74.64 123.27 C-73.07 120.51 -71.51 117.75 -69.94 114.99 C-65.6 107.32 -61.34 99.61 -57.09 91.9 C-56.75 91.29 -56.41 90.68 -56.07 90.05 C-54.71 87.58 -53.35 85.11 -51.99 82.65 C-48.43 76.18 -44.86 69.73 -41.27 63.27 C-40.65 62.16 -40.03 61.04 -39.4 59.89 C-34.92 51.84 -30.38 43.83 -25.83 35.83 C-20.87 27.06 -16.1 18.2 -11.36 9.31 C-10.8 8.26 -10.24 7.21 -9.66 6.12 C-9.16 5.19 -8.67 4.25 -8.15 3.28 C-5.99 -0.59 -4.33 0.02 0 0 Z " fill="#ED3237" transform="translate(94.96028751134872,154.8522703051567)"/>
<path d="M0 0 C2.44 0 4.88 0 7.32 0 C46.99 0.01 86.65 0.03 126.31 0.06 C124.8 4.73 122.96 9.07 120.74 13.44 C120.39 14.13 120.05 14.83 119.69 15.54 C116.84 21.15 113.77 26.62 110.65 32.08 C107.79 37.12 105.16 42.24 102.6 47.44 C99.46 53.79 96.21 60.09 92.93 66.38 C92.38 67.44 91.82 68.51 91.25 69.6 C88.61 74.67 85.96 79.73 83.28 84.79 C82.59 86.1 82.59 86.1 81.88 87.43 C81.02 89.06 80.16 90.69 79.29 92.31 C78.91 93.03 78.53 93.75 78.13 94.49 C77.8 95.11 77.47 95.74 77.13 96.38 C76.17 98.24 76.17 98.24 75.31 101.06 C74.65 101.06 73.99 101.06 73.31 101.06 C73.19 101.62 73.07 102.18 72.95 102.76 C66.52 125.59 42.76 147.01 23.24 158.94 C11.87 165.22 -0.07 168.45 -12.69 171.06 C-13.93 171.33 -13.93 171.33 -15.19 171.61 C-20.34 172.28 -25.45 172.2 -30.65 172.19 C-32.47 172.19 -32.47 172.19 -34.34 172.19 C-37.73 172.19 -41.12 172.19 -44.51 172.19 C-48.2 172.18 -51.89 172.18 -55.57 172.19 C-62.04 172.19 -68.5 172.19 -74.96 172.18 C-84.58 172.18 -94.19 172.18 -103.8 172.18 C-119.97 172.18 -136.13 172.17 -152.3 172.17 C-168.31 172.16 -184.32 172.16 -200.33 172.16 C-201.82 172.16 -201.82 172.16 -203.34 172.16 C-208.4 172.16 -213.45 172.16 -218.5 172.16 C-254.31 172.15 -290.11 172.15 -325.91 172.14 C-360.69 172.13 -395.48 172.12 -430.26 172.12 C-431.33 172.12 -432.4 172.12 -433.51 172.12 C-444.27 172.12 -455.04 172.12 -465.8 172.11 C-487.73 172.11 -509.66 172.11 -531.59 172.11 C-532.6 172.11 -533.61 172.11 -534.65 172.11 C-602 172.1 -669.35 172.08 -736.69 172.06 C-736.69 171.73 -736.69 171.4 -736.69 171.06 C-734.81 170.73 -734.81 170.73 -732.88 170.4 C-710.93 166.41 -692.54 159.18 -675.69 144.06 C-675.06 143.5 -674.43 142.94 -673.78 142.36 C-657.56 127.07 -646.44 104.83 -636.69 85.06 C-636.03 85.06 -635.37 85.06 -634.69 85.06 C-634.59 84.36 -634.48 83.65 -634.37 82.92 C-633.62 79.74 -632.43 77.27 -630.92 74.37 C-630.35 73.27 -629.78 72.17 -629.19 71.04 C-628.56 69.86 -627.94 68.68 -627.32 67.5 C-626.68 66.28 -626.04 65.07 -625.41 63.85 C-621.2 55.82 -616.87 47.86 -612.46 39.94 C-609.07 33.82 -605.94 27.61 -602.86 21.33 C-600.69 17 -598.34 12.79 -595.95 8.58 C-595.33 7.49 -595.33 7.49 -594.7 6.37 C-593.7 4.6 -592.7 2.83 -591.69 1.06 C-529.47 0.89 -467.25 0.73 -405.03 0.57 C-401.46 0.56 -397.88 0.55 -394.3 0.55 C-284.75 0.27 -175.2 0.01 0 0 Z " fill="#ED3237" transform="translate(1205.6938197612762,602.9368414878845)"/>
<path d="M0 0 C3.6 0.02 7.19 0.02 10.79 0.02 C17.56 0.03 24.34 0.06 31.12 0.09 C38.85 0.12 46.58 0.14 54.31 0.15 C70.18 0.18 86.05 0.24 101.92 0.3 C101.18 4.41 99.97 7.46 97.97 11.14 C97.35 12.28 96.74 13.41 96.11 14.58 C95.45 15.8 94.78 17.02 94.11 18.24 C93.43 19.5 92.75 20.76 92.07 22.02 C88.91 27.85 85.73 33.67 82.54 39.48 C81.52 41.34 80.5 43.2 79.49 45.05 C79 45.95 78.5 46.85 78 47.77 C74.81 53.6 71.79 59.5 68.86 65.47 C65.98 71.3 62.82 76.94 59.63 82.6 C56.62 87.99 53.82 93.44 51.1 98.99 C48.22 104.83 45.08 110.53 41.92 116.24 C36.85 125.43 32.24 134.74 27.92 144.3 C27.26 144.3 26.6 144.3 25.92 144.3 C25.65 145.18 25.38 146.05 25.1 146.95 C23.98 150.15 22.66 153.01 21.09 156.02 C20.24 157.65 20.24 157.65 19.38 159.31 C18.78 160.46 18.17 161.62 17.55 162.8 C16.91 164.02 16.28 165.24 15.64 166.46 C11.4 174.59 7.03 182.64 2.61 190.67 C-1.77 198.64 -5.93 206.72 -10.08 214.8 C-15.16 224.71 -20.33 234.54 -25.7 244.29 C-31.17 254.24 -36.36 264.33 -41.57 274.41 C-44.14 279.35 -46.73 284.27 -49.33 289.19 C-51.61 293.51 -53.87 297.83 -56.11 302.17 C-60.71 311.03 -65.29 319.84 -70.42 328.4 C-74.48 335.52 -77.96 342.96 -81.55 350.32 C-83 353.16 -84.54 355.9 -86.13 358.66 C-91.31 367.64 -95.79 376.87 -100.08 386.3 C-100.74 386.3 -101.4 386.3 -102.08 386.3 C-102.27 387.18 -102.27 387.18 -102.47 388.07 C-103.05 390.19 -103.77 392 -104.7 393.98 C-105.17 394.97 -105.17 394.97 -105.65 395.99 C-105.98 396.67 -106.3 397.35 -106.64 398.05 C-106.97 398.75 -107.3 399.45 -107.64 400.17 C-108.45 401.88 -109.26 403.59 -110.08 405.3 C-110.74 405.3 -111.4 405.3 -112.08 405.3 C-112.48 406.61 -112.48 406.61 -112.9 407.95 C-114.02 411.15 -115.34 414.01 -116.91 417.02 C-117.48 418.11 -118.04 419.19 -118.62 420.31 C-119.53 422.04 -119.53 422.04 -120.45 423.8 C-121.09 425.02 -121.72 426.24 -122.36 427.46 C-126.63 435.63 -131.01 443.74 -135.46 451.81 C-139.97 460.03 -144.26 468.35 -148.54 476.69 C-152.6 484.58 -156.73 492.41 -161.01 500.18 C-165.87 508.97 -170.49 517.87 -175.08 526.8 C-180.15 536.7 -185.32 546.53 -190.69 556.27 C-197.46 568.59 -204.01 581.05 -210.23 593.66 C-211.88 596.96 -213.68 600.14 -215.58 603.3 C-218.28 607.89 -220.73 612.52 -223.08 617.3 C-224.97 619.2 -228.18 618.48 -230.7 618.49 C-259.43 618.4 -286.62 608.3 -307.63 588.58 C-309.55 586.79 -311.51 585.12 -313.53 583.45 C-329.71 569.62 -339.06 547.09 -341.08 526.3 C-341.85 514.37 -342.64 500.12 -338.08 488.83 C-336.98 486.05 -336.49 483.43 -335.95 480.49 C-334.23 472.95 -331.03 466.6 -327.42 459.85 C-325.88 456.93 -324.37 453.99 -322.86 451.05 C-315.48 436.68 -307.87 422.45 -300.08 408.3 C-291.36 392.49 -291.36 392.49 -283.14 376.4 C-279.88 369.81 -276.33 363.38 -272.78 356.93 C-269.12 350.27 -265.57 343.55 -262.08 336.8 C-257.66 328.29 -253.12 319.84 -248.51 311.43 C-245.12 305.26 -241.82 299.05 -238.58 292.8 C-234.85 285.63 -231.03 278.52 -227.14 271.43 C-222.5 262.98 -218.01 254.47 -213.58 245.91 C-209.68 238.41 -205.65 230.98 -201.58 223.57 C-197.99 217.03 -194.51 210.43 -191.08 203.8 C-184.78 191.66 -178.24 179.66 -171.63 167.69 C-167.7 160.52 -163.94 153.27 -160.2 145.99 C-155.91 137.67 -151.53 129.44 -146.8 121.35 C-144.92 118.02 -143.2 114.62 -141.51 111.18 C-139.35 106.78 -137.08 102.52 -134.58 98.3 C-132.17 94.25 -129.97 90.16 -127.89 85.93 C-111.1 52.01 -91.32 18.99 -53.89 5.55 C-36.02 0.16 -18.54 -0.11 0 0 Z " fill="#ED3237" transform="translate(1717.0758728981018,154.69581818580627)"/>
<path d="M0 0 C1.91 -0.01 1.91 -0.01 3.86 -0.03 C5.26 -0.03 6.66 -0.03 8.06 -0.03 C9.54 -0.04 11.03 -0.05 12.51 -0.06 C16.53 -0.08 20.55 -0.09 24.57 -0.09 C27.09 -0.1 29.6 -0.1 32.12 -0.11 C40.9 -0.13 49.69 -0.15 58.47 -0.15 C66.64 -0.16 74.81 -0.18 82.99 -0.23 C90.02 -0.26 97.04 -0.28 104.07 -0.28 C108.27 -0.28 112.46 -0.29 116.65 -0.32 C120.6 -0.34 124.54 -0.34 128.49 -0.33 C129.93 -0.33 131.37 -0.33 132.82 -0.35 C142.19 -0.45 149.12 0.34 156.23 6.78 C159.88 10.86 160.01 16.37 159.87 21.58 C158.94 29.78 154.92 36.71 150.79 43.71 C148.07 48.33 145.58 53.04 143.19 57.84 C142.86 58.5 142.53 59.17 142.18 59.86 C140.88 62.48 139.64 65.1 138.58 67.83 C137.26 71.02 135.51 73.84 133.69 76.77 C132.68 78.43 132.68 78.43 131.64 80.12 C123.56 92.43 111.71 99.72 97.57 103.27 C91.88 104.19 86.16 104.04 80.42 103.96 C78.77 103.95 77.13 103.95 75.48 103.96 C71.06 103.96 66.64 103.92 62.22 103.88 C57.59 103.84 52.95 103.84 48.31 103.83 C39.55 103.82 30.8 103.77 22.04 103.71 C12.06 103.64 2.08 103.61 -7.91 103.58 C-28.41 103.51 -48.92 103.41 -69.43 103.27 C-67.85 99.25 -66.06 95.38 -64.12 91.52 C-63.78 90.85 -63.44 90.17 -63.09 89.47 C-55.63 74.69 -47.92 60.03 -40.18 45.4 C-37.87 41.04 -35.6 36.66 -33.36 32.27 C-32.83 31.24 -32.3 30.22 -31.76 29.16 C-30.74 27.17 -29.72 25.18 -28.72 23.19 C-24.28 14.57 -19.1 4.94 -9.65 1.16 C-6.28 0.23 -3.48 0.01 0 0 Z " fill="#29292A" transform="translate(1904.4314727783203,154.72584533691406)"/>
<path d="M0 0 C1.48 -0.01 2.97 -0.02 4.45 -0.03 C8.46 -0.05 12.47 -0.05 16.48 -0.04 C19.83 -0.03 23.19 -0.04 26.54 -0.05 C34.46 -0.06 42.38 -0.06 50.29 -0.04 C58.44 -0.03 66.6 -0.04 74.75 -0.07 C81.76 -0.1 88.78 -0.11 95.79 -0.1 C99.98 -0.09 104.16 -0.1 108.34 -0.12 C112.28 -0.14 116.21 -0.13 120.14 -0.11 C121.58 -0.1 123.02 -0.1 124.46 -0.12 C132.85 -0.18 139.39 0.23 146.17 5.53 C150.24 9.7 151.29 13.27 151.54 18.97 C151.36 30.46 144.53 40.96 139.16 50.78 C137.61 53.64 136.34 56.5 135.17 59.53 C134.47 60.88 133.74 62.21 132.98 63.53 C131.45 66.23 129.97 68.92 128.57 71.69 C120.58 87.3 110.13 96.47 93.59 102.27 C86.52 104.49 79.45 104.32 72.11 104.21 C70.48 104.21 68.84 104.21 67.2 104.22 C62.81 104.22 58.42 104.18 54.03 104.14 C49.42 104.1 44.81 104.1 40.2 104.09 C31.49 104.08 22.79 104.03 14.08 103.97 C4.16 103.9 -5.76 103.87 -15.68 103.84 C-36.06 103.77 -56.45 103.67 -76.83 103.53 C-76.2 100.13 -75.45 97.43 -73.79 94.38 C-73.38 93.61 -72.97 92.84 -72.55 92.05 C-72.1 91.24 -71.66 90.43 -71.21 89.6 C-70.28 87.88 -69.36 86.15 -68.44 84.43 C-67.99 83.59 -67.54 82.75 -67.08 81.88 C-65.47 78.86 -63.96 75.8 -62.46 72.72 C-58.91 65.54 -55.05 58.53 -51.18 51.52 C-48.28 46.26 -45.52 40.96 -42.91 35.54 C-41.83 33.53 -41.83 33.53 -39.83 31.53 C-39.2 30.05 -38.63 28.55 -38.08 27.03 C-34.54 17.93 -29.21 6.92 -20.06 2.37 C-13.58 -0.36 -6.92 -0.03 0 0 Z " fill="#29292A" transform="translate(2408.83203125,154.466552734375)"/>
<path d="M0 0 C14.76 -0.17 29.53 -0.27 44.29 -0.3 C50.83 -0.32 57.37 -0.34 63.91 -0.39 C70.35 -0.44 76.79 -0.47 83.24 -0.48 C85.66 -0.48 88.09 -0.5 90.51 -0.52 C93.88 -0.55 97.25 -0.55 100.62 -0.55 C102.09 -0.57 102.09 -0.57 103.59 -0.6 C110.54 -0.53 115.91 1.14 121.71 5.04 C126.31 9.88 127.2 15.4 127.09 21.85 C125.65 33.78 117.4 45.29 111.67 55.61 C109.11 60.25 106.75 64.95 104.46 69.73 C98.81 81.22 92.59 89.14 81.71 96.04 C80.98 96.54 80.25 97.05 79.5 97.57 C70.12 102.5 60.59 102.45 50.24 102.38 C48.6 102.38 46.95 102.38 45.3 102.38 C40.86 102.38 36.42 102.36 31.97 102.34 C27.32 102.32 22.66 102.32 18.01 102.32 C9.21 102.31 0.41 102.28 -8.39 102.25 C-18.42 102.22 -28.44 102.2 -38.46 102.19 C-59.07 102.16 -79.68 102.11 -100.29 102.04 C-99.57 98.06 -98.44 95.01 -96.55 91.42 C-95.99 90.33 -95.42 89.24 -94.84 88.12 C-94.22 86.96 -93.61 85.8 -92.98 84.6 C-92.34 83.39 -91.71 82.18 -91.08 80.96 C-86.62 72.46 -82.04 64.03 -77.42 55.62 C-74.56 50.42 -71.8 45.18 -69.17 39.85 C-67.88 37.25 -66.58 34.64 -65.29 32.04 C-64.9 31.25 -64.51 30.47 -64.11 29.66 C-52.21 5.77 -52.21 5.77 -41.29 1.04 C-38.06 0.61 -38.06 0.61 -34.48 0.54 C-33.8 0.52 -33.13 0.51 -32.44 0.49 C-30.17 0.44 -27.89 0.4 -25.62 0.37 C-23.96 0.34 -22.3 0.31 -20.63 0.28 C-13.76 0.15 -6.88 0.08 0 0 Z " fill="#292929" transform="translate(2184.2920837402344,154.96180725097656)"/>
<path d="M0 0 C7.09 -0.08 14.18 -0.14 21.28 -0.18 C25.51 -0.21 29.74 -0.24 33.98 -0.29 C37.96 -0.34 41.95 -0.37 45.93 -0.37 C47.39 -0.38 48.85 -0.39 50.3 -0.42 C59.05 -0.56 65.99 0 73.31 5.14 C78.29 10.37 79.08 14.51 79.03 21.64 C77.97 31.42 71.82 40.6 67.31 49.14 C66.41 50.88 65.52 52.61 64.63 54.35 C62.25 58.98 59.79 63.57 57.31 68.14 C56.94 68.82 56.58 69.49 56.21 70.18 C48.42 84.64 39.99 94.18 24.31 100.14 C23.56 100.49 22.82 100.84 22.05 101.2 C18.68 102.36 15.89 102.39 12.33 102.38 C11.29 102.38 11.29 102.38 10.23 102.39 C7.93 102.39 5.62 102.38 3.32 102.37 C1.66 102.37 0 102.37 -1.65 102.37 C-6.14 102.37 -10.63 102.36 -15.13 102.34 C-19.82 102.33 -24.52 102.33 -29.21 102.33 C-38.1 102.32 -46.99 102.3 -55.88 102.28 C-66 102.26 -76.12 102.25 -86.24 102.24 C-107.06 102.22 -127.88 102.19 -148.69 102.14 C-147.5 98.46 -146.28 95.11 -144.37 91.74 C-143.7 90.54 -143.7 90.54 -143.01 89.31 C-142.3 88.05 -142.3 88.05 -141.57 86.77 C-138.06 80.5 -134.66 74.22 -131.51 67.77 C-129.11 62.88 -126.58 58.15 -123.82 53.45 C-120.44 47.66 -117.53 41.72 -114.69 35.64 C-101.28 7.01 -101.28 7.01 -92.05 1.97 C-86.65 0.07 -80.76 0.53 -75.09 0.53 C-73.61 0.52 -72.12 0.5 -70.64 0.48 C-66.62 0.44 -62.6 0.42 -58.58 0.4 C-54.36 0.38 -50.15 0.35 -45.93 0.31 C-38.83 0.26 -31.74 0.22 -24.64 0.2 C-16.43 0.16 -8.21 0.09 0 0 Z " fill="#ED3338" transform="translate(263.69397926330566,-0.14055633544921875)"/>
<path d="M0 0 C61.38 0 122.76 0 186 0 C183.47 8.44 180.57 16.22 177.06 24.25 C176.78 24.91 176.49 25.56 176.2 26.24 C162.15 58.44 143.43 93.6 109.12 107.75 C107.76 108.2 106.38 108.61 105 109 C104.08 109.28 103.16 109.55 102.21 109.84 C86.23 113.98 65.06 114.61 49.69 108 C48.6 107.54 48.6 107.54 47.49 107.07 C26.84 97.96 14.32 82.04 5 62 C4.22 60.34 4.22 60.34 3.43 58.66 C-1.36 46.44 -2.36 33.19 -2.38 20.19 C-2.38 19.1 -2.38 18.01 -2.38 16.88 C-2.29 10.68 -1.56 6.25 0 0 Z " fill="#FEFDFD" transform="translate(1230,316)"/>
<path d="M0 0 C61.38 0 122.76 0 186 0 C182.62 11.27 182.62 11.27 180.8 15.66 C180.4 16.63 180 17.6 179.59 18.6 C179.17 19.6 178.75 20.6 178.31 21.62 C177.87 22.68 177.43 23.73 176.97 24.82 C162.25 59.46 142.39 94.03 105.97 108.74 C97.25 111.75 88.35 112.36 79.19 112.31 C78.14 112.31 77.09 112.3 76.01 112.3 C65.69 112.15 55.86 111.13 46.71 105.95 C44.79 104.83 44.79 104.83 41.69 103.75 C25.27 96.81 12.75 80.58 5.99 64.55 C0.31 49.88 -1.17 36.01 -1.12 20.31 C-1.13 19.02 -1.13 17.73 -1.14 16.4 C-1.14 15.15 -1.13 13.9 -1.13 12.61 C-1.13 11.49 -1.13 10.36 -1.13 9.2 C-1 6 -1 6 0 0 Z " fill="#FEFDFD" transform="translate(991,316)"/>
<path d="M0 0 C1.48 4.88 2.55 9.71 3.38 14.75 C4.49 21.22 5.66 27.68 6.94 34.12 C7.08 34.91 7.23 35.69 7.38 36.49 C7.53 37.24 7.68 37.99 7.84 38.76 C7.97 39.41 8.09 40.06 8.23 40.73 C9.37 44.1 11.18 46.95 13 50 C17.82 50.07 22.64 50.13 27.46 50.16 C29.1 50.18 30.73 50.2 32.37 50.23 C46.31 50.98 46.31 50.98 58.68 45.59 C60.61 43.27 60.67 40.94 61 38 C59.05 38.25 59.05 38.25 57.06 38.5 C49.34 39.32 43.01 39.98 36 36 C32.47 32.36 31.43 30 31.44 24.94 C31.73 16.46 34.11 8.36 40.25 2.25 C43.63 -0.22 46.63 -0.89 50.79 -0.58 C56.14 0.83 59.1 4.77 62.25 9.06 C67.98 20.42 69.45 36.95 65.81 49.25 C62.93 56.05 58.88 59.49 52.18 62.24 C47.62 63.83 43.42 64.19 38.6 64.24 C37.89 64.25 37.18 64.25 36.44 64.26 C34.94 64.28 33.43 64.29 31.93 64.3 C30.4 64.31 28.86 64.33 27.33 64.36 C25.11 64.4 22.89 64.42 20.66 64.43 C19.65 64.45 19.65 64.45 18.61 64.48 C13.62 64.46 10.86 63.09 7 60 C5.1 57.75 5.1 57.75 3.62 55.44 C3.12 54.67 2.62 53.91 2.1 53.12 C1 51 1 51 1 48 C0.61 48.43 0.21 48.85 -0.2 49.29 C-4.36 53.37 -7.25 54.72 -13.08 54.67 C-13.9 54.64 -14.72 54.6 -15.56 54.56 C-16.39 54.56 -17.21 54.56 -18.06 54.56 C-24.04 54.43 -28.62 53.38 -33 49 C-33.77 41.64 -31.93 36.14 -27.67 30.12 C-22.46 24.23 -15.12 21.04 -8 18 C-7.34 18 -6.68 18 -6 18 C-6.33 17.11 -6.66 16.23 -7 15.31 C-8.59 10.04 -8.59 10.04 -8 7 C-3.23 0 -3.23 0 0 0 Z " fill="#2E2E2F" transform="translate(218,901)"/>
<path d="M0 0 C0.66 0.33 1.32 0.66 2 1 C2.58 3.37 3.04 5.66 3.44 8.06 C3.56 8.78 3.69 9.49 3.82 10.23 C4.22 12.49 4.61 14.74 5 17 C7.06 34.85 7.06 34.85 15 50 C18.22 50.59 18.22 50.59 21.94 50.46 C22.62 50.46 23.31 50.46 24.01 50.46 C25.46 50.45 26.9 50.44 28.35 50.41 C30.53 50.38 32.71 50.37 34.89 50.37 C48.22 50.65 48.22 50.65 60.12 45.69 C62.23 42.67 62.18 41.55 62 38 C61.42 38.01 60.84 38.02 60.24 38.03 C57.6 38.07 54.96 38.1 52.31 38.12 C51.4 38.14 50.49 38.16 49.55 38.18 C40.51 38.24 40.51 38.24 37 36 C32.49 30.44 33.33 23.78 34 17 C35.65 10.65 39.29 5.52 44 1 C47.32 -0.66 50.44 -0.72 54 0 C61.09 3.68 63.58 9.76 66.09 17.01 C67.98 23.22 68.25 28.77 68.31 35.25 C68.36 36.77 68.36 36.77 68.4 38.32 C68.46 45.89 67.13 51.03 62.43 56.99 C53.86 64.29 43.73 64.51 32.96 64.45 C30.81 64.44 28.65 64.47 26.5 64.5 C13.54 64.57 13.54 64.57 8 60 C6.22 58 6.22 58 5.06 56 C4.66 55.34 4.26 54.68 3.85 54 C3 52 3 52 3 48 C2.63 48.43 2.26 48.87 1.88 49.31 C-3.02 54.02 -7.47 54.6 -14 54.62 C-14.76 54.64 -15.52 54.65 -16.3 54.66 C-21.76 54.52 -26.57 53.33 -31 50 C-32.82 45.11 -31.93 41.01 -30.12 36.27 C-25.42 26.8 -16.91 22.2 -7.31 18.62 C-6.55 18.42 -5.79 18.21 -5 18 C-5.25 17.23 -5.25 17.23 -5.5 16.44 C-6.2 13.04 -6.41 10.47 -6 7 C-4.26 4.39 -2.24 2.19 0 0 Z " fill="#303031" transform="translate(960,901)"/>
<path d="M0 0 C3.06 1.29 6.06 2.68 9.07 4.09 C22.46 9.97 35.36 13.21 50.07 14.09 C49.22 19.03 48.2 22.97 44.07 26.09 C40.88 26.66 37.8 26.73 34.56 26.83 C23.74 27.65 13.13 34.35 3.55 39.08 C-6.72 44.12 -16.33 48.22 -27.9 48.22 C-28.92 48.23 -28.92 48.23 -29.96 48.23 C-32.19 48.23 -34.43 48.23 -36.66 48.23 C-38.22 48.23 -39.78 48.23 -41.34 48.23 C-44.59 48.23 -47.85 48.23 -51.11 48.22 C-55.29 48.22 -59.47 48.22 -63.65 48.23 C-66.86 48.23 -70.07 48.23 -73.29 48.23 C-74.83 48.23 -76.37 48.23 -77.91 48.23 C-80.06 48.23 -82.21 48.23 -84.36 48.22 C-85.58 48.22 -86.81 48.22 -88.07 48.22 C-90.93 48.09 -90.93 48.09 -92.93 47.09 C-93.04 47.93 -93.15 48.76 -93.27 49.62 C-95.3 64.05 -100.05 78.35 -112.03 87.73 C-116.03 89.61 -119.45 89.46 -123.81 89.34 C-124.59 89.34 -125.36 89.33 -126.16 89.33 C-130.84 89.27 -135.32 88.86 -139.93 88.09 C-139.93 87.1 -139.93 86.11 -139.93 85.09 C-138.91 84.75 -137.88 84.41 -136.82 84.06 C-122.63 79.17 -109.79 71.51 -101.87 58.29 C-100.2 54.37 -100.03 50.31 -99.93 46.09 C-100.59 46.09 -101.25 46.09 -101.93 46.09 C-102.51 45.04 -103.09 43.99 -103.68 42.91 C-105.07 40.44 -106.32 38.67 -108.25 36.53 C-109.93 34.09 -109.93 34.09 -109.87 31.16 C-108.88 27.91 -107.56 25.07 -105.93 22.09 C-101.36 23.96 -99.06 27.33 -96.03 31.1 C-92.13 34.81 -87.17 34.22 -82.01 34.24 C-81.33 34.24 -80.65 34.25 -79.96 34.25 C-77.73 34.26 -75.5 34.26 -73.27 34.26 C-71.7 34.26 -70.14 34.27 -68.58 34.27 C-65.31 34.28 -62.04 34.28 -58.77 34.28 C-54.6 34.28 -50.44 34.29 -46.27 34.31 C-43.04 34.32 -39.82 34.32 -36.59 34.32 C-35.06 34.32 -33.52 34.33 -31.99 34.34 C-19.55 34.39 -9.34 33.08 2.07 28.09 C3.46 27.49 4.86 26.88 6.25 26.28 C10.2 24.56 14.13 22.83 18.07 21.09 C1.29 12.97 1.29 12.97 -16.93 12.09 C-19.31 13.19 -20.89 14.41 -22.93 16.09 C-23.92 16.09 -24.91 16.09 -25.93 16.09 C-25.93 9.57 -23.21 6.59 -18.84 1.91 C-13.94 -2.76 -6.11 -1.89 0 0 Z " fill="#333333" transform="translate(429.93359375,916.90625)"/>
<path d="M0 0 C3.87 1.56 7.66 2.6 11.72 3.53 C12.83 3.78 12.83 3.78 13.96 4.05 C19.76 5.35 25.52 6.15 31.47 6.4 C30.92 10.97 30.01 14.53 27.47 18.4 C24.54 19.07 24.54 19.07 21.03 19.03 C6.88 19.51 -5.06 26.21 -17.25 32.89 C-33.4 41.57 -49.78 40.97 -67.68 40.79 C-70.42 40.77 -73.16 40.77 -75.9 40.77 C-79.19 40.77 -82.48 40.76 -85.76 40.74 C-86.98 40.74 -88.21 40.73 -89.47 40.73 C-90.6 40.72 -91.73 40.71 -92.9 40.69 C-93.89 40.69 -94.89 40.68 -95.91 40.67 C-98.58 40.4 -100.24 39.77 -102.53 38.4 C-102.5 39.07 -102.46 39.74 -102.43 40.42 C-101.97 55.8 -107.93 66.45 -117.86 77.84 C-122.11 81.81 -126.23 81.68 -131.84 81.59 C-132.58 81.59 -133.31 81.59 -134.07 81.59 C-138.65 81.55 -143.01 81.15 -147.53 80.4 C-147.86 79.41 -148.19 78.42 -148.53 77.4 C-147.72 77.19 -146.91 76.99 -146.07 76.77 C-133.05 73.15 -119.06 65.62 -111.97 53.53 C-109.46 48.08 -108.45 43.35 -109.53 37.4 C-111.96 33.2 -115.11 29.82 -118.53 26.4 C-118.26 21.73 -115.9 18.3 -113.53 14.4 C-112.87 14.4 -112.21 14.4 -111.53 14.4 C-109.76 16.57 -108.19 18.85 -106.58 21.14 C-103.48 24.57 -100.16 26.2 -95.57 26.78 C-94.54 26.78 -93.51 26.78 -92.44 26.77 C-90.67 26.78 -90.67 26.78 -88.86 26.79 C-87.59 26.78 -86.33 26.78 -85.02 26.77 C-83.71 26.77 -82.39 26.77 -81.03 26.77 C-78.25 26.77 -75.46 26.76 -72.68 26.74 C-69.14 26.72 -65.6 26.72 -62.07 26.72 C-59.32 26.73 -56.57 26.72 -53.82 26.71 C-51.89 26.7 -49.96 26.7 -48.04 26.71 C-37.19 26.62 -27.07 25.7 -17.22 20.96 C-15.91 20.36 -14.6 19.76 -13.29 19.16 C-12.67 18.86 -12.05 18.57 -11.41 18.27 C-9.51 17.39 -7.6 16.56 -5.68 15.74 C-3.94 15 -2.22 14.24 -0.53 13.4 C-16.79 5.44 -16.79 5.44 -34.53 4.4 C-37.51 5.73 -37.51 5.73 -39.53 7.4 C-40.19 7.4 -40.85 7.4 -41.53 7.4 C-41.53 8.06 -41.53 8.72 -41.53 9.4 C-42.52 9.4 -43.51 9.4 -44.53 9.4 C-44.26 2.89 -41.9 -0.83 -37.53 -5.6 C-27.37 -14.89 -10.3 -4.66 0 0 Z " fill="#353536" transform="translate(1181.53125,924.59765625)"/>
<path d="M0 0 C3.58 2.42 6.19 4.54 7.15 8.91 C7.4 10.87 7.55 12.84 7.69 14.81 C6.68 14.49 5.68 14.17 4.65 13.84 C-2.25 11.88 -10.42 11.34 -17.18 13.9 C-19.31 15.11 -21.29 16.43 -23.31 17.81 C-24.3 18.14 -25.29 18.47 -26.31 18.81 C-27.01 20.13 -27.68 21.46 -28.31 22.81 C-28.83 23.25 -29.34 23.68 -29.88 24.12 C-32.09 26.73 -32 29.5 -32.31 32.81 C-28.47 35.35 -24.87 36.68 -20.44 37.88 C-18.68 38.36 -18.68 38.36 -16.88 38.85 C-15.7 39.17 -14.53 39.48 -13.31 39.81 C-8.26 41.19 -4.31 42.29 -0.31 45.81 C1.6 53.61 -0.84 59.8 -4.31 66.81 C-6.65 69.78 -9.15 71.78 -12.31 73.81 C-12.98 74.27 -13.65 74.73 -14.34 75.2 C-25.77 82.3 -39.39 84 -52.56 84.12 C-53.55 84.15 -54.53 84.18 -55.55 84.21 C-65.2 84.3 -74.13 81.48 -81.31 74.81 C-88.88 65.91 -88.14 55.95 -87.31 44.81 C-85.84 37.46 -81.53 31.13 -76.31 25.81 C-75.65 25.81 -74.99 25.81 -74.31 25.81 C-74.88 31.24 -76.29 35.76 -78.31 40.81 C-80.29 46.74 -80.21 53.52 -77.94 59.31 C-77.4 60.14 -76.87 60.96 -76.31 61.81 C-76.02 62.55 -75.74 63.3 -75.44 64.06 C-73.81 66.6 -72.16 66.93 -69.31 67.81 C-68.3 68.16 -67.28 68.5 -66.23 68.85 C-61.75 70.12 -57.38 70.11 -52.75 70.06 C-51.87 70.06 -50.98 70.05 -50.08 70.04 C-36.71 69.82 -22.77 68.06 -10.88 61.46 C-9.04 59.86 -9.04 59.86 -9.06 57.12 C-9.14 56.36 -9.23 55.6 -9.31 54.81 C-14.62 52.4 -19.59 50.63 -25.38 49.81 C-30.88 49.03 -35.4 47.37 -40.31 44.81 C-42.26 31.99 -38.94 24.51 -31.35 14.13 C-23.39 3.86 -13.72 -4.92 0 0 Z " fill="#303031" transform="translate(596.3125,915.1875)"/>
<path d="M0 0 C4.34 2.37 5.91 4.91 7.81 9.44 C7.91 12.16 7.91 12.16 7.81 14.44 C7.11 14.29 6.41 14.15 5.69 14 C-2.47 12.4 -11.35 10.7 -19.19 14.44 C-24.04 18.13 -28.89 22.25 -32.19 27.44 C-32.44 30.6 -32.44 30.6 -32.19 33.44 C-25.55 36.51 -18.72 38.32 -11.66 40.19 C-10.76 40.43 -9.86 40.68 -8.93 40.94 C-8.11 41.15 -7.3 41.37 -6.46 41.59 C-3.93 42.53 -2.19 43.63 -0.19 45.44 C1.37 52.5 -0.11 59.07 -3.65 65.25 C-11.46 76.34 -25.73 80.46 -38.44 83.01 C-43.37 83.78 -48.27 83.96 -53.25 84 C-54.19 84.01 -55.13 84.03 -56.09 84.04 C-65.48 83.91 -73.6 81.03 -80.43 74.46 C-86.57 67.41 -88.01 60.6 -87.67 51.33 C-86.47 41.71 -83.34 33.11 -76.19 26.44 C-75.53 26.44 -74.87 26.44 -74.19 26.44 C-74.83 30.15 -75.9 33.43 -77.25 36.94 C-79.75 44.36 -81.26 53.09 -77.69 60.44 C-73.48 65.48 -68.75 68.57 -62.19 69.44 C-46.11 70.24 -23.83 71.18 -10.38 60.94 C-7.75 58.49 -7.75 58.49 -8.19 54.44 C-14.28 51.72 -19.99 49.99 -26.57 48.93 C-31.74 47.96 -36.69 46.58 -40.19 42.44 C-42.36 35.63 -39.94 29.8 -37.19 23.44 C-30.4 10.69 -16.22 -7.08 0 0 Z " fill="#323233" transform="translate(883.1875,915.5625)"/>
<path d="M0 0 C5.45 2.43 7.56 5.75 10 11 C10 12.32 10 13.64 10 15 C6 14 6 14 4.3 13.49 C-3.21 11.89 -11.71 11.64 -18.5 15.5 C-23.2 18.84 -29.2 23.12 -30.43 29.07 C-30.49 31.19 -30.49 31.19 -30 34 C-23 37.1 -15.95 39.13 -8.52 40.88 C-4.48 42.17 -1.03 43.97 2 47 C3.1 54.76 1.2 60.51 -3 67 C-8.92 74.21 -16.88 77.67 -25.62 80.25 C-26.44 80.51 -27.26 80.76 -28.11 81.02 C-41.46 85.1 -58.71 87.12 -71.55 80.61 C-77.26 76.86 -82.55 72.25 -84.6 65.53 C-86.75 51.92 -84.41 40.57 -77 29 C-76.34 28.34 -75.68 27.68 -75 27 C-74.01 27 -73.02 27 -72 27 C-72.74 30.55 -74.13 33.67 -75.56 37 C-78.29 44.09 -79.88 51.01 -77.11 58.35 C-74.26 63.41 -69.88 67.81 -64.21 69.55 C-47.58 72.95 -26.16 70.41 -11 63 C-8.09 60.65 -8.09 60.65 -6 58 C-6 57.01 -6 56.02 -6 55 C-12.42 52.42 -18.68 50.89 -25.46 49.63 C-30.51 48.6 -33.95 47.22 -38 44 C-39.94 40.13 -39.64 36.2 -39 32 C-32.55 14.47 -20.06 -1.84 0 0 Z " fill="#313132" transform="translate(138,915)"/>
<path d="M0 0 C3 1 3 1 4.32 3.07 C8.79 12.46 12.09 20.39 8.81 30.75 C5.87 36.03 3.06 40.09 -2.69 42.4 C-7.89 43.75 -13.34 43.4 -18.67 43.36 C-19.98 43.36 -21.29 43.36 -22.64 43.36 C-25.41 43.36 -28.18 43.35 -30.94 43.34 C-34.48 43.31 -38.02 43.31 -41.57 43.32 C-44.95 43.32 -48.34 43.31 -51.73 43.3 C-53 43.3 -54.27 43.3 -55.58 43.3 C-56.76 43.29 -57.94 43.28 -59.15 43.27 C-60.19 43.27 -61.22 43.27 -62.29 43.26 C-65.02 43 -66.67 42.4 -69 41 C-68.84 42.33 -68.84 42.33 -68.68 43.68 C-67.78 57.47 -73.46 68.05 -82.31 78.44 C-86.01 82.4 -88.36 83.9 -93.86 84.23 C-95.35 84.23 -96.83 84.21 -98.31 84.19 C-99.05 84.19 -99.78 84.19 -100.54 84.19 C-105.12 84.15 -109.48 83.75 -114 83 C-114 82.01 -114 81.02 -114 80 C-113.14 79.74 -112.28 79.49 -111.39 79.22 C-97.05 74.58 -83.85 66.5 -76.29 52.94 C-74.63 49.16 -74.09 46 -75 42 C-77.2 37.68 -79.88 34.04 -83.44 30.75 C-85 29 -85 29 -85 26.69 C-83.69 23.18 -81.94 20.2 -80 17 C-79.34 17 -78.68 17 -78 17 C-76.23 19.17 -74.65 21.45 -73.05 23.74 C-69.88 27.24 -66.55 28.81 -61.87 29.37 C-60.2 29.37 -60.2 29.37 -58.49 29.37 C-56.58 29.38 -56.58 29.38 -54.64 29.39 C-53.27 29.38 -51.89 29.37 -50.52 29.36 C-49.1 29.36 -47.68 29.36 -46.26 29.36 C-43.3 29.36 -40.33 29.35 -37.37 29.34 C-33.57 29.31 -29.77 29.31 -25.97 29.32 C-23.04 29.32 -20.12 29.32 -17.19 29.31 C-15.79 29.3 -14.39 29.3 -12.99 29.3 C-11.03 29.3 -9.08 29.29 -7.12 29.27 C-6.01 29.27 -4.9 29.27 -3.75 29.26 C-0.78 29.2 -0.78 29.2 2 27 C1.72 22.5 1.23 19.98 -1.62 16.44 C-3.59 13.89 -4 13.35 -4 10 C-2.85 6.55 -1.52 3.3 0 0 Z " fill="#303030" transform="translate(749,922)"/>
<path d="M0 0 C1.48 4.88 2.55 9.71 3.38 14.75 C4.49 21.22 5.66 27.68 6.94 34.12 C7.08 34.91 7.23 35.69 7.38 36.49 C7.83 38.7 8.38 40.84 9 43 C9.17 43.68 9.33 44.37 9.5 45.08 C10.37 47.43 10.98 48.48 13 50 C17.9 51.03 22.77 50.98 27.75 50.94 C29.13 50.95 30.51 50.97 31.89 50.99 C35.26 51.02 38.63 51.03 42 51 C42 51.33 42 51.66 42 52 C32.1 52.5 32.1 52.5 22 53 C22 56.3 22 59.6 22 63 C29.92 63 37.84 63 46 63 C46 63.33 46 63.66 46 64 C41.41 64.1 36.82 64.17 32.23 64.22 C30.67 64.24 29.11 64.27 27.55 64.3 C25.3 64.35 23.05 64.37 20.8 64.39 C19.77 64.42 19.77 64.42 18.71 64.45 C13.67 64.46 10.89 63.13 7 60 C5.1 57.75 5.1 57.75 3.62 55.44 C3.12 54.67 2.62 53.91 2.1 53.12 C1 51 1 51 1 48 C0.61 48.43 0.21 48.85 -0.2 49.29 C-4.36 53.37 -7.25 54.72 -13.08 54.67 C-13.9 54.64 -14.72 54.6 -15.56 54.56 C-16.39 54.56 -17.21 54.56 -18.06 54.56 C-24.04 54.43 -28.62 53.38 -33 49 C-33.77 41.64 -31.93 36.14 -27.67 30.12 C-22.46 24.23 -15.12 21.04 -8 18 C-7.34 18 -6.68 18 -6 18 C-6.33 17.11 -6.66 16.23 -7 15.31 C-8.59 10.04 -8.59 10.04 -8 7 C-3.23 0 -3.23 0 0 0 Z " fill="#333333" transform="translate(218,901)"/>
<path d="M0 0 C7.09 3.68 9.58 9.76 12.09 17.01 C13.98 23.22 14.25 28.77 14.31 35.25 C14.34 36.26 14.37 37.27 14.4 38.32 C14.46 45.9 13.16 51.11 8.36 57.02 C7.83 57.47 7.3 57.92 6.75 58.38 C6.23 58.84 5.71 59.3 5.17 59.77 C-1.44 63.51 -8.63 63.26 -16 63.12 C-16.97 63.12 -17.93 63.11 -18.93 63.1 C-21.28 63.07 -23.64 63.04 -26 63 C-26 59.7 -26 56.4 -26 53 C-24.07 52.8 -24.07 52.8 -22.1 52.6 C-20.42 52.42 -18.74 52.24 -17.06 52.06 C-15.79 51.93 -15.79 51.93 -14.49 51.8 C-13.27 51.67 -13.27 51.67 -12.04 51.54 C-11.29 51.46 -10.54 51.38 -9.77 51.3 C-7.98 51.17 -7.98 51.17 -7 50 C-5.42 49.73 -3.84 49.48 -2.25 49.25 C2.53 48.33 5.12 47.13 8 43 C8.16 40.39 8.16 40.39 8 38 C7.13 38.02 7.13 38.02 6.24 38.03 C3.6 38.07 0.96 38.1 -1.69 38.12 C-2.6 38.14 -3.51 38.16 -4.45 38.18 C-13.49 38.24 -13.49 38.24 -17 36 C-21.51 30.44 -20.67 23.78 -20 17 C-18.35 10.65 -14.71 5.52 -10 1 C-6.68 -0.66 -3.56 -0.72 0 0 Z " fill="#2E2E2F" transform="translate(1014,901)"/>
<path d="M0 0 C4.58 1.87 6.87 5.24 9.9 9 C12.29 11.28 13.76 11.68 17 12 C17 12.66 17 13.32 17 14 C35.48 14 53.96 14 73 14 C73 17.63 73 21.26 73 25 C53.2 25 33.4 25 13 25 C12.34 29.29 11.68 33.58 11 38 C8.37 48.23 2.35 59.03 -6.09 65.64 C-10.1 67.51 -13.52 67.36 -17.88 67.25 C-18.65 67.24 -19.43 67.24 -20.23 67.23 C-24.91 67.17 -29.39 66.76 -34 66 C-34 65.01 -34 64.02 -34 63 C-32.97 62.66 -31.95 62.32 -30.89 61.97 C-16.7 57.08 -3.85 49.42 4.07 36.2 C5.73 32.28 5.9 28.22 6 24 C5.34 24 4.68 24 4 24 C3.42 22.95 2.85 21.9 2.25 20.81 C0.87 18.34 -0.39 16.57 -2.31 14.44 C-4 12 -4 12 -3.94 9.06 C-2.94 5.81 -1.63 2.98 0 0 Z " fill="#2C2C2C" transform="translate(324,939)"/>
<path d="M0 0 C0.66 0 1.32 0 2 0 C3.09 1.38 4.12 2.81 5.12 4.25 C9.44 9.97 14.09 12.47 21 14 C23.91 14.15 26.79 14.26 29.7 14.32 C30.96 14.35 30.96 14.35 32.24 14.38 C34.91 14.44 37.58 14.5 40.25 14.56 C42.06 14.61 43.88 14.65 45.69 14.69 C50.12 14.8 54.56 14.9 59 15 C59 18.3 59 21.6 59 25 C52.49 25.02 45.97 25.04 39.46 25.05 C37.24 25.06 35.02 25.07 32.8 25.08 C29.62 25.09 26.44 25.09 23.26 25.1 C22.26 25.1 21.27 25.11 20.24 25.11 C18.86 25.11 18.86 25.11 17.45 25.11 C16.64 25.12 15.82 25.12 14.99 25.12 C13 25 13 25 11 24 C11.05 25 11.05 25 11.11 26.02 C11.56 41.39 5.6 52.05 -4.32 63.44 C-8.58 67.4 -12.7 67.28 -18.31 67.19 C-19.05 67.19 -19.78 67.19 -20.54 67.19 C-25.12 67.15 -29.48 66.75 -34 66 C-34.33 65.01 -34.66 64.02 -35 63 C-34.19 62.79 -33.38 62.58 -32.54 62.37 C-19.51 58.75 -5.53 51.22 1.56 39.12 C4.07 33.68 5.08 28.94 4 23 C1.57 18.79 -1.58 15.42 -5 12 C-4.73 7.33 -2.37 3.9 0 0 Z " fill="#303031" transform="translate(1068,939)"/>
<path d="M0 0 C1.23 9.61 1.18 19.18 1.2 28.85 C1.21 29.75 1.21 30.64 1.21 31.57 C1.23 36.3 1.24 41.04 1.24 45.78 C1.25 50.65 1.27 55.52 1.3 60.4 C1.32 64.16 1.32 67.93 1.32 71.7 C1.33 73.5 1.33 75.29 1.35 77.09 C1.36 79.6 1.36 82.12 1.36 84.63 C1.37 85.36 1.37 86.09 1.38 86.85 C1.34 92.14 0.07 96.12 -2 101 C-2.99 101 -3.98 101 -5 101 C-5.05 100.1 -5.1 99.19 -5.15 98.26 C-6.96 59.93 -6.96 59.93 -10.63 21.76 C-11.77 10.15 -11.77 10.15 -9.1 6.15 C-8.28 5.42 -7.47 4.69 -6.62 3.94 C-5.81 3.18 -5 2.43 -4.16 1.65 C-2 0 -2 0 0 0 Z " fill="#3A3A3B" transform="translate(915,865)"/>
<path d="M0 0 C0.66 0.33 1.32 0.66 2 1 C2.07 13.02 2.12 25.04 2.16 37.07 C2.17 42.65 2.19 48.23 2.23 53.81 C2.26 59.2 2.28 64.59 2.28 69.98 C2.29 72.03 2.3 74.09 2.32 76.14 C2.34 79.02 2.34 81.9 2.34 84.78 C2.36 86.05 2.36 86.05 2.37 87.35 C2.35 92.3 1.76 95.72 -1 100 C-1.99 100.5 -1.99 100.5 -3 101 C-3.07 99.95 -3.07 99.95 -3.14 98.89 C-3.58 92.23 -4.02 85.57 -4.46 78.91 C-4.69 75.48 -4.92 72.06 -5.14 68.64 C-6.05 54.69 -6.98 40.77 -8.57 26.88 C-10.45 9.95 -10.45 9.95 -6.99 5.3 C-4.75 3.29 -2.55 1.58 0 0 Z " fill="#323233" transform="translate(170,865)"/>
<path d="M0 0 C0.07 11.99 0.12 23.97 0.16 35.96 C0.17 41.53 0.19 47.1 0.23 52.66 C0.26 58.04 0.28 63.41 0.28 68.79 C0.29 70.84 0.3 72.88 0.32 74.93 C0.34 77.81 0.34 80.68 0.34 83.55 C0.35 84.4 0.36 85.24 0.37 86.1 C0.34 91.71 -0.77 95.85 -3 101 C-3.66 101 -4.32 101 -5 101 C-5.06 99.7 -5.06 99.7 -5.12 98.38 C-6.09 77.75 -7.58 57.24 -9.68 36.7 C-12.39 9.82 -12.39 9.82 -8.94 5.3 C-3.3 0 -3.3 0 0 0 Z " fill="#2C2D2D" transform="translate(628,865)"/>
<path d="M0 0 C3 1 3 1 4.32 3.07 C8.79 12.46 12.09 20.39 8.81 30.75 C5.88 36.02 3.06 40.1 -2.69 42.41 C-7.93 43.75 -13.43 43.36 -18.81 43.29 C-20.14 43.29 -21.48 43.28 -22.81 43.28 C-26.31 43.27 -29.8 43.24 -33.29 43.21 C-36.87 43.18 -40.44 43.16 -44.01 43.15 C-51.01 43.11 -58 43.06 -65 43 C-65 42.67 -65 42.34 -65 42 C-50.15 42 -35.3 42 -20 42 C-20 38.7 -20 35.4 -20 32 C-21.02 32.01 -22.04 32.01 -23.09 32.02 C-26.9 32.03 -30.7 32.05 -34.51 32.05 C-36.16 32.06 -37.8 32.07 -39.44 32.08 C-41.82 32.09 -44.19 32.09 -46.56 32.1 C-47.65 32.11 -47.65 32.11 -48.76 32.11 C-53.59 32.11 -58.22 31.68 -63 31 C-63 30.67 -63 30.34 -63 30 C-62.23 29.99 -61.46 29.98 -60.67 29.98 C-53.41 29.9 -46.16 29.81 -38.9 29.71 C-35.17 29.66 -31.45 29.62 -27.72 29.58 C-24.12 29.54 -20.52 29.49 -16.92 29.44 C-15.55 29.42 -14.17 29.41 -12.8 29.4 C-10.88 29.38 -8.95 29.35 -7.03 29.32 C-5.94 29.31 -4.84 29.29 -3.71 29.28 C-0.78 29.19 -0.78 29.19 2 27 C1.72 22.5 1.23 19.98 -1.62 16.44 C-3.59 13.89 -4 13.35 -4 10 C-2.85 6.55 -1.52 3.3 0 0 Z " fill="#3D3D3E" transform="translate(749,922)"/>
<path d="M0 0 C0.79 0.02 1.59 0.05 2.41 0.07 C4.95 0.15 7.48 0.23 10.02 0.32 C11.74 0.37 13.46 0.42 15.18 0.47 C19.4 0.6 23.62 0.74 27.83 0.88 C27.83 4.18 27.83 7.48 27.83 10.88 C14.96 10.88 2.09 10.88 -11.17 10.88 C-11.17 7.58 -11.17 4.28 -11.17 0.88 C-7.38 -0.38 -3.93 -0.14 0 0 Z " fill="#282829" transform="translate(701.16796875,953.12109375)"/>
<path d="M0 0 C12.54 0 25.08 0 38 0 C38 3.3 38 6.6 38 10 C25.46 10 12.92 10 0 10 C0 6.7 0 3.4 0 0 Z " fill="#282829" transform="translate(1089,954)"/>
<path d="M0 0 C0.34 1.73 0.67 3.46 1 5.19 C1.19 6.15 1.37 7.11 1.56 8.11 C1.97 10.79 2.08 13.29 2 16 C-14.89 16.2 -14.89 16.2 -21 15 C-21.66 14.34 -22.32 13.68 -23 13 C-22.88 11.07 -22.88 11.07 -22 9 C-15.9 3.65 -8.23 -0.6 0 0 Z " fill="#F4F4F4" transform="translate(215,928)"/>
<path d="M0 0 C0.99 5.28 1.98 10.56 3 16 C-4.98 18.66 -14.01 16.98 -22 15 C-22.33 13.68 -22.66 12.36 -23 11 C-7.69 0 -7.69 0 0 0 Z " fill="#F4F4F4" transform="translate(958,927)"/>
<path d="M0 0 C3.65 2.11 6.72 4.91 8 9 C8.02 10.67 8.03 12.33 8 14 C5.42 14.08 2.83 14.14 0.25 14.19 C-0.84 14.23 -0.84 14.23 -1.96 14.26 C-5.2 14.31 -7.58 14.22 -10.48 12.7 C-12 11 -12 11 -12.56 7.56 C-12 4 -12 4 -9.94 1.56 C-6.21 -0.42 -4.18 -0.66 0 0 Z " fill="#F5F5F5" transform="translate(1012,913)"/>
<path d="M0 0 C3.32 0.53 4.98 1.91 7.22 4.36 C9.23 7.42 9.22 8.5 9.22 12.36 C6.41 13.76 3.99 13.56 0.85 13.61 C-0.87 13.64 -0.87 13.64 -2.61 13.68 C-6.04 13.33 -7.42 12.84 -9.78 10.36 C-10.53 4.37 -10.53 4.37 -8.52 1.66 C-5.76 -0.41 -3.35 -0.11 0 0 Z " fill="#F3F3F3" transform="translate(266.77734375,913.64453125)"/>
<path d="M0 0 C3.82 1.56 6.19 4.04 9 7 C7.44 10.82 4.96 13.19 2 16 C-1.83 14.44 -4.36 12.16 -7 9 C-7.19 7 -7.19 7 -6 5 C-4.09 3.17 -2.11 1.62 0 0 Z " fill="#2F2F30" transform="translate(263,870)"/>
<path d="M0 0 C3.82 1.56 6.29 3.92 9 7 C9 7.99 9 8.98 9 10 C7.37 11.38 5.7 12.71 4 14 C3.67 14.66 3.34 15.32 3 16 C-0.35 15.42 -1.94 14.41 -4.25 11.94 C-5.03 11.12 -5.03 11.12 -5.83 10.28 C-6.21 9.86 -6.6 9.43 -7 9 C-5.44 5.18 -2.96 2.81 0 0 Z " fill="#323233" transform="translate(1006,870)"/>
<path d="M0 0 C3.6 1.72 5.51 4.86 7.97 7.94 C5.33 10.58 2.69 13.22 -0.03 15.94 C-6.78 10.31 -6.78 10.31 -9.03 6.94 C-7.96 5.74 -6.88 4.55 -5.78 3.38 C-5.18 2.71 -4.57 2.05 -3.95 1.37 C-2.03 -0.06 -2.03 -0.06 0 0 Z " fill="#2F2F30" transform="translate(747.03125,980.0625)"/>
<path d="M0 0 C33.66 0 67.32 0 102 0 C102 0.33 102 0.66 102 1 C100.75 1.01 99.51 1.02 98.22 1.03 C86.5 1.13 74.77 1.23 63.04 1.34 C57.01 1.39 50.98 1.45 44.95 1.5 C39.13 1.54 33.32 1.6 27.5 1.65 C25.28 1.67 23.06 1.69 20.84 1.71 C17.73 1.73 14.63 1.76 11.52 1.79 C10.6 1.8 9.67 1.81 8.72 1.81 C7.87 1.82 7.03 1.83 6.16 1.84 C5.42 1.85 4.69 1.85 3.93 1.86 C1.78 1.94 1.78 1.94 -1 3 C-0.67 2.01 -0.34 1.02 0 0 Z " fill="#EF474B" transform="translate(89,155)"/>
<path d="M0 0 C9.9 0 19.8 0 30 0 C30 0.33 30 0.66 30 1 C24.06 1.33 18.12 1.66 12 2 C12 5.3 12 8.6 12 12 C18.27 12 24.54 12 31 12 C31 12.33 31 12.66 31 13 C26.5 13.05 22 13.09 17.49 13.11 C15.96 13.12 14.43 13.13 12.9 13.15 C10.7 13.18 8.49 13.19 6.29 13.2 C5.61 13.21 4.92 13.22 4.22 13.23 C0.57 13.23 -0.87 13.09 -4 11 C2.93 11.5 2.93 11.5 10 12 C10 8.7 10 5.4 10 2 C6.7 1.67 3.4 1.34 0 1 C0 0.67 0 0.34 0 0 Z " fill="#616262" transform="translate(976,952)"/>
<path d="M0 0 C0 4.29 0 8.58 0 13 C-0.33 13 -0.66 13 -1 13 C-1.33 9.7 -1.66 6.4 -2 3 C-7.27 7.13 -7.27 7.13 -9.69 13.14 C-9.91 16.1 -10.03 19.02 -10 22 C-10.33 22 -10.66 22 -11 22 C-12.37 9.93 -12.37 9.93 -9.07 5.29 C-3.1 0 -3.1 0 0 0 Z " fill="#616161" transform="translate(628,865)"/>
<path d="M0 0 C0.66 0.33 1.32 0.66 2 1 C-3.61 6.61 -9.22 12.22 -15 18 C-15.66 17.67 -16.32 17.34 -17 17 C-15.3 15.1 -13.59 13.2 -11.88 11.31 C-11.4 10.78 -10.93 10.25 -10.44 9.71 C-7.19 6.12 -3.78 3.02 0 0 Z " fill="#F0585C" transform="translate(1636,175)"/>
<path d="M0 0 C11.88 0 23.76 0 36 0 C36 0.33 36 0.66 36 1 C34.99 1.03 33.97 1.05 32.93 1.08 C29.16 1.17 25.4 1.27 21.64 1.37 C20.01 1.42 18.38 1.46 16.75 1.5 C14.41 1.56 12.07 1.62 9.73 1.68 C8.64 1.71 8.64 1.71 7.52 1.73 C4.44 1.82 1.95 2.02 -1 3 C-0.67 2.01 -0.34 1.02 0 0 Z " fill="#F05155" transform="translate(89,155)"/>
<path d="M0 0 C0.66 0.33 1.32 0.66 2 1 C-2.95 5.95 -7.9 10.9 -13 16 C-13.66 15.67 -14.32 15.34 -15 15 C-13.44 13.25 -11.88 11.5 -10.31 9.75 C-9.44 8.78 -8.57 7.8 -7.68 6.8 C-5.25 4.26 -2.79 2.11 0 0 Z " fill="#4C4C4C" transform="translate(2047,339)"/>
<path d="M0 0 C0.66 0.33 1.32 0.66 2 1 C1.67 2.32 1.34 3.64 1 5 C0.34 5 -0.32 5 -1 5 C-2.72 6.14 -2.72 6.14 -4 8 C-4.36 10.51 -4.36 10.51 -4.19 13.19 C-4.16 14.09 -4.13 14.99 -4.11 15.92 C-4.07 16.61 -4.04 17.29 -4 18 C-6.12 14.08 -6.61 11.5 -6 7 C-4.26 4.39 -2.24 2.19 0 0 Z " fill="#5B5B5C" transform="translate(960,901)"/>
<path d="M0 0 C1.24 3.72 0.57 5.44 -0.44 9.19 C-0.72 10.27 -1.01 11.36 -1.31 12.48 C-1.65 13.73 -1.65 13.73 -2 15 C-2.66 14.01 -3.32 13.02 -4 12 C-4.99 12.5 -4.99 12.5 -6 13 C-4.59 8.17 -2.57 4.28 0 0 Z " fill="#FBD4D5" transform="translate(671,369)"/>
<path d="M0 0 C0.66 0.33 1.32 0.66 2 1 C-1.63 4.63 -5.26 8.26 -9 12 C-9.33 11.34 -9.66 10.68 -10 10 C-8.9 8.7 -7.8 7.41 -6.69 6.12 C-6.07 5.41 -5.46 4.69 -4.82 3.95 C-3 2 -3 2 0 0 Z " fill="#4A4A4B" transform="translate(1892,157)"/>
<path d="M0 0 C0.66 0.33 1.32 0.66 2 1 C1.43 1.55 0.87 2.11 0.29 2.68 C-0.45 3.4 -1.18 4.13 -1.94 4.88 C-2.67 5.59 -3.4 6.31 -4.15 7.05 C-6.06 8.87 -6.06 8.87 -7 11 C-7.66 11 -8.32 11 -9 11 C-7.2 6.75 -4.18 2.09 0 0 Z " fill="#505051" transform="translate(2387,158)"/>
<path d="M0 0 C0 0.33 0 0.66 0 1 C-1.07 1.29 -2.14 1.58 -3.25 1.88 C-6.09 2.73 -8.44 3.56 -11 5 C-11 6.98 -11 8.96 -11 11 C-11.33 11 -11.66 11 -12 11 C-12.31 7.75 -12.31 7.75 -12 4 C-8.41 -0.25 -5.38 -0.42 0 0 Z " fill="#B1B1B1" transform="translate(1012,913)"/>
<path d="M0 0 C0.66 0.33 1.32 0.66 2 1 C-0.97 3.97 -3.94 6.94 -7 10 C-7 6.04 -5.59 4.89 -3 2 C-2.01 1.34 -1.02 0.68 0 0 Z " fill="#F05458" transform="translate(170,3)"/>
<path d="M0 0 C0.66 0.33 1.32 0.66 2 1 C-0.64 3.64 -3.28 6.28 -6 9 C-6.33 8.01 -6.66 7.02 -7 6 C-4.69 4.02 -2.38 2.04 0 0 Z " fill="#444445" transform="translate(263,870)"/>
<path d="M0 0 C0.33 0 0.66 0 1 0 C1.39 5.96 1.39 5.96 1 8 C-0.32 8.99 -1.64 9.98 -3 11 C-2.01 7.37 -1.02 3.74 0 0 Z " fill="#BCBCBC" transform="translate(2559,179)"/>
<path d="M0 0 C0.99 0.33 1.98 0.66 3 1 C0.42 3.65 -1.92 5.94 -5 8 C-3.63 5.05 -2.01 2.56 0 0 Z " fill="#FBDADB" transform="translate(910,493)"/>
</svg>
